#!OML:ASF I:\Actors\actors\Patient Classification 2\Patient 1\Session 1\actor1.ASF
:FULLY-SPECIFIED
:DEGREES
796
root -0.0363835 18.811 5.74161 3.98204 4.50559 4.34305
lowerback 18.1135 0.243933 1.03794
upperback -1.16118 1.19885 5.50363
thorax -11.6324 0.72159 5.19164
lowerneck -26.0373 2.06733 1.70107
upperneck 17.4193 5.25356 -12.619
head 10.3217 0.976187 -3.96707
rclavicle 2.06736e-014 1.27222e-014
rhumerus -0.500064 17.7169 -85.1394
rradius 94.8318
rwrist -84.632
rhand -30.2118 -52.9069
rfingers 7.12502
rthumb -3.522 997.142
lclavicle 2.06736e-014 1.27222e-014
lhumerus 38.2489 -20.4684 82.1502
lradius 71.6325
lwrist 72.8361
lhand -37.6662 -29.7969
lfingers 7.12502
lthumb -10.7173 -0.090231
rfemur 0 0 0
rtibia 0
rfoot 0 0
rtoes 0
lfemur -7.99203 -1.64362 -20.3071
ltibia 21.0265
lfoot -16.5817 6.37421
ltoes -55.2449
797
root -0.0560568 18.7981 5.85353 3.40958 4.76657 4.06566
lowerback 16.4573 -0.0421333 1.21247
upperback -1.71232 0.789315 5.32514
thorax -11.2527 0.510073 4.98133
lowerneck -25.2406 2.2601 1.77582
upperneck 18.1628 5.61625 -12.7794
head 10.489 1.1267 -3.99266
rclavicle 1.19271e-014 -8.26944e-014
rhumerus -0.118459 17.6283 -83.9948
rradius 96.3443
rwrist -85.3069
rhand -30.6061 -53.5216
rfingers 7.12502
rthumb -3.90278 996.534
lclavicle 1.19271e-014 -8.26944e-014
lhumerus 40.0691 -21.824 80.2039
lradius 72.6951
lwrist 71.5823
lhand -37.2723 -29.7952
lfingers 7.12502
lthumb -10.3373 -0.0692247
rfemur 0 0 0
rtibia 0
rfoot 0 0
rtoes 0
lfemur -6.86055 -1.70571 -19.9089
ltibia 20.7847
lfoot -16.8314 6.16142
ltoes -55.3396
798
root -0.0764705 18.7805 5.95584 2.79847 4.92434 3.99816
lowerback 14.9816 -0.322194 1.10305
upperback -2.21066 0.328203 5.09421
thorax -10.9111 0.287942 4.88064
lowerneck -24.5947 2.48294 1.61815
upperneck 18.9498 6.04771 -12.6608
head 10.6865 1.3175 -3.86871
rclavicle -1.33186e-014 -3.81667e-014
rhumerus 0.525612 17.5565 -82.7633
rradius 98.1256
rwrist -86.2448
rhand -31.2516 -53.7401
rfingers 7.12502
rthumb -4.52604 996.328
lclavicle -1.33186e-014 -3.81667e-014
lhumerus 42.1062 -23.0432 78.0961
lradius 73.9983
lwrist 70.3394
lhand -37.0339 -29.7485
lfingers 7.12502
lthumb -10.1074 -0.0112679
rfemur 0 0 0
rtibia 0
rfoot 0 0
rtoes 0
lfemur -5.71699 -1.98322 -19.7624
ltibia 20.6054
lfoot -17.1991 6.21409
ltoes -55.5504
799
root -0.098707 18.7599 6.04936 2.16045 5.0352 4.0633
lowerback 13.7618 -0.588267 0.836599
upperback -2.703 -0.133394 4.81404
thorax -10.7077 0.073879 4.81219
lowerneck -23.9207 2.70988 1.38871
upperneck 19.6513 6.49633 -12.5307
head 10.8455 1.51495 -3.72353
rclavicle -1.03368e-014 5.08889e-014
rhumerus 0.738827 17.1364 -81.9105
rradius 100.464
rwrist -86.9335
rhand -31.2569 -53.7447
rfingers 7.12502
rthumb -4.53119 996.324
lclavicle -1.03368e-014 5.08889e-014
lhumerus 44.2837 -24.2202 75.88
lradius 75.4976
lwrist 69.1018
lhand -36.6202 -30.152
lfingers 7.12502
lthumb -9.70819 -0.395788
rfemur 0 0 0
rtibia 0
rfoot 0 0
rtoes 0
lfemur -4.625 -2.216 -19.7577
ltibia 20.5358
lfoot -17.5771 6.21088
ltoes -55.7347
800
root -0.121021 18.7395 6.13477 1.56483 5.08662 4.11147
lowerback 12.683 -0.830456 0.619517
upperback -3.16452 -0.548415 4.49493
thorax -10.5529 -0.123198 4.65683
lowerneck -23.2144 2.95345 1.2842
upperneck 20.1356 6.939 -12.5717
head 10.9291 1.70779 -3.65861
rclavicle 6.21202e-016 1.11319e-014
rhumerus 0.383978 16.0681 -81.7343
rradius 103.537
rwrist -87.197
rhand -30.6014 -53.2913
rfingers 7.12502
rthumb -3.89825 996.765
lclavicle 6.21202e-016 1.11319e-014
lhumerus 46.6958 -25.392 73.3282
lradius 77.4277
lwrist 67.7373
lhand -36.1906 -30.5294
lfingers 7.12502
lthumb -9.29372 -0.754226
rfemur 0 0 0
rtibia 0
rfoot 0 0
rtoes 0
lfemur -3.62148 -2.3804 -19.7401
ltibia 20.4743
lfoot -17.8859 6.1294
ltoes -55.7053
801
root -0.143664 18.7205 6.21223 1.08282 5.0697 4.07071
lowerback 11.7218 -1.03476 0.432725
upperback -3.6096 -0.892882 4.24192
thorax -10.4531 -0.285512 4.53942
lowerneck -22.5894 3.20348 1.17206
upperneck 20.3766 7.39727 -12.7395
head 10.9459 1.89886 -3.63153
rclavicle 2.15681e-014 -2.22639e-014
rhumerus 1.90506 15.7545 -80.0005
rradius 106.477
rwrist -87.3923
rhand -30.7901 -53.8274
rfingers 7.12502
rthumb -4.08042 996.232
lclavicle 2.15681e-014 -2.22639e-014
lhumerus 49.2193 -26.4934 70.6373
lradius 80.3023
lwrist 66.1635
lhand -36.2634 -29.2294
lfingers 7.12502
lthumb -9.36401 0.54262
rfemur 0 0 0
rtibia 0
rfoot 0 0
rtoes 0
lfemur -2.79703 -2.71008 -19.6675
ltibia 20.4605
lfoot -18.2176 6.21439
ltoes -55.523
802
root -0.168787 18.7031 6.28388 0.759655 5.04009 3.87457
lowerback 11.217 -1.22535 0.429228
upperback -4.34229 -1.15548 4.07573
thorax -10.9544 -0.403455 4.42538
lowerneck -21.9143 3.43046 0.820023
upperneck 20.5964 7.88068 -12.8331
head 10.9349 2.09377 -3.53324
rclavicle 2.18663e-015 1.43125e-014
rhumerus 2.34226 14.8412 -78.9158
rradius 110.693
rwrist -87.2286
rhand -30.5546 -53.1049
rfingers 7.12502
rthumb -3.85306 996.95
lclavicle 2.18663e-015 1.43125e-014
lhumerus 51.1944 -27.677 68.3435
lradius 84.0757
lwrist 63.9937
lhand -34.9922 -29.1956
lfingers 7.12502
lthumb -8.1372 0.627737
rfemur 0 0 0
rtibia 0
rfoot 0 0
rtoes 0
lfemur -2.22092 -3.1502 -19.4466
ltibia 20.5075
lfoot -18.5581 6.46499
ltoes -55.3924
803
root -0.194247 18.6885 6.35008 0.608361 4.98844 3.5639
lowerback 10.3423 -1.32462 -0.0838008
upperback -4.69851 -1.34251 4.44006
thorax -10.8004 -0.44128 5.1324
lowerneck -21.7982 3.65717 0.0614747
upperneck 20.319 8.54785 -13.3096
head 10.8733 2.29545 -3.46416
rclavicle 4.77083e-015 3.18055e-015
rhumerus 3.26453 13.661 -77.3868
rradius 115.736
rwrist -85.9164
rhand -29.2462 -50.3763
rfingers 7.12502
rthumb -2.58953 999.66
lclavicle 4.77083e-015 3.18055e-015
lhumerus 53.5692 -28.3692 66.3163
lradius 89.0717
lwrist 63.5734
lhand -33.3599 -29.3391
lfingers 7.12502
lthumb -6.56163 0.539214
rfemur 0 0 0
rtibia 0
rfoot 0 0
rtoes 0
lfemur -1.87268 -3.56847 -19.1081
ltibia 20.5747
lfoot -18.9029 6.83545
ltoes -55.4259
804
root -0.216143 18.6764 6.41182 0.613976 4.8581 3.24788
lowerback 9.50004 -1.51059 0.116882
upperback -5.1167 -1.58579 4.29433
thorax -10.7505 -0.577476 4.88333
lowerneck -21.5545 4.04238 -0.0530401
upperneck 19.8054 9.14143 -13.6693
head 10.7082 2.55128 -3.46698
rclavicle 7.55382e-015 -1.11319e-014
rhumerus 3.87703 11.9842 -77.0907
rradius 121.244
rwrist -84.3462
rhand -28.844 -47.9859
rfingers 7.12502
rthumb -2.20106 1002.05
lclavicle 7.55382e-015 -1.11319e-014
lhumerus 56.0373 -29.2525 63.2189
lradius 94.5793
lwrist 61.8584
lhand -32.4658 -29.3091
lfingers 7.12502
lthumb -5.69848 0.594244
rfemur 0 0 0
rtibia 0
rfoot 0 0
rtoes 0
lfemur -1.66792 -4.0216 -18.7848
ltibia 20.598
lfoot -19.3265 7.34723
ltoes -55.4641
805
root -0.236379 18.664 6.46922 0.74721 4.60823 3.03547
lowerback 8.7013 -1.59202 0.0656737
upperback -5.77349 -1.71211 4.1908
thorax -10.9981 -0.628637 4.81611
lowerneck -20.3863 4.36737 0.0350945
upperneck 19.0044 9.54147 -14.2313
head 10.2729 2.77319 -3.61005
rclavicle -6.75868e-015 2.38542e-014
rhumerus 3.79843 10.3088 -77.0366
rradius 126.937
rwrist -81.5943
rhand -28.2779 -47.2475
rfingers 7.12502
rthumb -1.65428 1002.78
lclavicle -6.75868e-015 2.38542e-014
lhumerus 58.2633 -30.4124 60.4522
lradius 100.214
lwrist 60.5762
lhand -30.7147 -30.6135
lfingers 7.12502
lthumb -4.00765 -0.671433
rfemur 0 0 0
rtibia 0
rfoot 0 0
rtoes 0
lfemur -1.53316 -4.47819 -18.5753
ltibia 20.5241
lfoot -19.8141 7.8864
ltoes -55.3566
806
root -0.257142 18.6503 6.51978 0.950771 4.23065 2.98399
lowerback 7.81843 -1.65877 -0.240578
upperback -6.39261 -1.85219 4.11651
thorax -11.1435 -0.667895 4.92015
lowerneck -19.3089 4.63951 0.122197
upperneck 18.3803 9.86943 -14.7061
head 9.91276 2.96317 -3.73941
rclavicle 3.26007e-014 -2.38542e-014
rhumerus 3.26198 8.61115 -77.3138
rradius 132.441
rwrist -79.3155
rhand -28.4754 -49.318
rfingers 7.12502
rthumb -1.84507 1000.71
lclavicle 3.26007e-014 -2.38542e-014
lhumerus 60.8739 -31.6711 57.4367
lradius 105.407
lwrist 57.7954
lhand -29.2359 -32.1145
lfingers 7.12502
lthumb -2.57951 -2.15039
rfemur 0 0 0
rtibia 0
rfoot 0 0
rtoes 0
lfemur -1.40729 -4.89901 -18.5287
ltibia 20.3433
lfoot -20.318 8.386
ltoes -55.0912
807
root -0.277938 18.6367 6.56335 1.17296 3.71069 3.04228
lowerback 6.86224 -1.70775 -0.669519
upperback -6.86571 -1.98451 4.04179
thorax -11.0753 -0.699703 5.07758
lowerneck -18.863 4.86323 0.073192
upperneck 18.2156 10.192 -14.8643
head 9.8085 3.12081 -3.73961
rclavicle -2.38542e-014 2.06736e-014
rhumerus 2.10027 7.13247 -77.8704
rradius 137.107
rwrist -76.5692
rhand -28.2724 -47.5258
rfingers 7.12502
rthumb -1.64903 1002.5
lclavicle -2.38542e-014 2.06736e-014
lhumerus 63.6638 -32.9306 54.3929
lradius 109.568
lwrist 55.4975
lhand -28.4025 -33.8684
lfingers 7.12502
lthumb -1.77467 -3.89603
rfemur 0 0 0
rtibia 0
rfoot 0 0
rtoes 0
lfemur -1.26898 -5.13071 -18.5777
ltibia 20.1007
lfoot -20.7844 8.8107
ltoes -54.9237
808
root -0.296404 18.6245 6.59887 1.41282 3.04244 3.13507
lowerback 5.8564 -1.76306 -1.05805
upperback -7.27247 -2.11785 3.94087
thorax -10.9025 -0.739928 5.17473
lowerneck -18.5608 5.04922 -0.10504
upperneck 18.2535 10.4502 -14.6713
head 9.76468 3.25886 -3.60706
rclavicle 1.86858e-014 -1.27222e-014
rhumerus 0.302073 5.6335 -78.562
rradius 140.337
rwrist -73.5672
rhand -27.8071 -43.0249
rfingers 7.12502
rthumb -1.19963 1007
lclavicle 1.86858e-014 -1.27222e-014
lhumerus 65.8773 -34.3305 51.5583
lradius 112.37
lwrist 53.6335
lhand -26.6085 -35.3136
lfingers 7.12502
lthumb -0.0419801 -5.33388
rfemur 0 0 0
rtibia 0
rfoot 0 0
rtoes 0
lfemur -1.15775 -5.00327 -18.6436
ltibia 19.8409
lfoot -21.0979 9.15899
ltoes -55.0367
